# xmcd CD database file
#
# Track frame offsets:
#	150
#	23624
#	51194
#	67124
#	79994
#	92249
#	105674
#	130124
#	154500
#	176399
#	180074
#
# Disc length: 2615 seconds
#
# Revision: 0
# Processed by: cddbd v1.4PL0 Copyright (c) Steve Scherf et al.
# Submitted via: CDex 1.50Beta7
#
DISCID=7f0a350b
DTITLE=Ackerman - Ornament
DYEAR=1988
DGENRE=Jazz
TTITLE0=To mrkas na drat a on je to spagat
TTITLE1=Ornament
TTITLE2=Zaznej
TTITLE3=Uzasna minust
TTITLE4=Prtak
TTITLE5=Baridal a Brtnik
TTITLE6=Stromoradi
TTITLE7=jinotaj
TTITLE8=Vecna touha
TTITLE9=Tecka
TTITLE10=Ornament II
EXTD=YEAR: 1988
EXTT0=
EXTT1=
EXTT2=
EXTT3=
EXTT4=
EXTT5=
EXTT6=
EXTT7=
EXTT8=
EXTT9=
EXTT10=
PLAYORDER=
